<svg width="253" height="254" viewBox="0 0 253 254" fill="none" xmlns="http://www.w3.org/2000/svg">
<path d="M75.9249 20.8154H32.9604V65.6015H75.9249V20.8154Z" fill="#E0E0E0"/>
<path d="M73.0152 20.8154H30.0508V65.6015H73.0152V20.8154Z" fill="#EBEBEB"/>
<path d="M67.2426 26.8369H35.8301V59.5802H67.2426V26.8369Z" fill="#FAFAFA"/>
<path d="M35.8295 59.7979C35.5984 60.1278 35.3357 60.4346 35.0452 60.7137C34.5392 61.2197 33.8308 61.9534 33.0212 62.7377C32.2116 63.522 31.5032 64.2152 30.9972 64.706C30.7235 64.99 30.4236 65.2475 30.1016 65.4752C30.3236 65.1441 30.5797 64.8371 30.8656 64.5593C31.3716 64.0533 32.08 63.3145 32.8896 62.5353C33.6992 61.7561 34.4076 61.0578 34.9389 60.5619C35.2069 60.2754 35.5056 60.0192 35.8295 59.7979Z" fill="#E0E0E0"/>
<path d="M67.2417 59.7017C67.5629 59.9341 67.8611 60.1967 68.1323 60.486C68.6383 60.992 69.372 61.7004 70.1563 62.51C70.9406 63.3196 71.6287 64.028 72.1246 64.534C72.41 64.8063 72.6677 65.1063 72.8937 65.4296C72.57 65.2022 72.2715 64.941 72.0032 64.6503C71.4972 64.1443 70.7635 63.4359 69.9792 62.6263C69.1949 61.8167 68.5067 61.1083 68.0108 60.6023C67.7234 60.3301 67.4656 60.0282 67.2417 59.7017Z" fill="#E0E0E0"/>
<path d="M67.1553 26.923C67.3858 26.6003 67.6486 26.3019 67.9396 26.0325C68.4456 25.5265 69.1489 24.7928 69.9383 24.0085C70.7276 23.2242 71.4563 22.5309 71.9876 22.0401C72.2622 21.7552 72.5638 21.4976 72.8883 21.271C72.6567 21.5914 72.394 21.888 72.104 22.1565C71.598 22.6625 70.8946 23.4013 70.08 24.1805C69.2653 24.9597 68.562 25.658 68.0256 26.1539C67.7622 26.439 67.4706 26.6967 67.1553 26.923Z" fill="#E0E0E0"/>
<path d="M35.7433 27.0038C35.4221 26.7714 35.1239 26.5087 34.8528 26.2195C34.3468 25.7135 33.608 25.0051 32.8288 24.1955C32.0495 23.3859 31.3512 22.6775 30.8554 22.1715C30.5704 21.9001 30.3144 21.6 30.0913 21.2759C30.4113 21.506 30.7079 21.767 30.9768 22.0551C31.4828 22.5611 32.2216 23.2695 33.0008 24.0791C33.78 24.8887 34.4783 25.5971 34.9742 26.1031C35.2616 26.3754 35.5194 26.6773 35.7433 27.0038Z" fill="#E0E0E0"/>
<path d="M67.1568 59.5801C67.1568 59.5801 67.1568 59.5245 67.1568 59.4233C67.1568 59.3221 67.1568 59.1601 67.1568 58.9679C67.1568 58.558 67.1568 57.9559 67.1568 57.2019C67.1568 55.6536 67.1568 53.3968 67.1568 50.5278C67.1568 44.7948 67.1264 36.6229 67.1011 26.8369L67.2074 26.9381H35.8809L35.9973 26.8217C35.9973 38.8392 35.9973 50.0977 35.9973 59.5649L35.8961 59.4637L58.5851 59.5143L64.9506 59.5447H66.6356H64.9759H58.6256L35.8556 59.5953H35.7544V59.4941C35.7544 50.0117 35.7544 38.7481 35.7544 26.7508V26.6294H35.8758H67.2023H67.3035V26.7357C67.3035 36.547 67.263 44.7442 67.2529 50.5177C67.2529 53.3766 67.2529 55.6232 67.2225 57.1665C67.2225 57.9255 67.2225 58.5125 67.2225 58.9122C67.2225 59.1045 67.2225 59.2512 67.2225 59.3575C67.2225 59.4637 67.1568 59.5801 67.1568 59.5801Z" fill="#E0E0E0"/>
<path d="M44.1179 40.5142C44.1179 40.5142 43.4449 48.6102 52.2139 48.6102C52.224 44.294 48.6567 40.8785 44.1179 40.5142Z" fill="#EBEBEB"/>
<path d="M60.1834 40.5192C60.1834 40.5192 52.0874 39.8463 52.0874 48.6152C56.4036 48.6304 59.8191 45.0581 60.1834 40.5192Z" fill="#EBEBEB"/>
<path d="M51.8344 36.0815C51.8344 36.0815 45.2108 42.027 52.1987 48.6202C55.4472 45.1794 55.1537 39.7804 51.8344 36.0815Z" fill="#E0E0E0"/>
<path d="M186.541 184.816C183.868 183.144 180.848 182.106 177.712 181.78C176.27 181.633 174.676 181.673 173.532 182.549C173.4 182.627 173.29 182.739 173.215 182.873C173.139 183.007 173.1 183.159 173.102 183.313C173.174 183.525 173.319 183.704 173.512 183.819C177.105 186.556 182.539 186.905 186.541 184.805" fill="#E0E0E0"/>
<path d="M186.314 184.562C184.269 183.062 182.36 181.384 180.611 179.548C178.855 177.698 177.62 175.416 177.033 172.934C176.882 172.18 176.836 171.32 177.317 170.723C181.871 174.265 185.413 178.865 186.314 184.562Z" fill="#E0E0E0"/>
<path d="M186.497 184.779C186.074 182.298 186.109 179.76 186.598 177.291C187.17 174.847 188.5 172.509 190.59 171.112C191.374 172.949 191.035 175.064 190.484 176.982C189.627 179.955 188.29 182.768 186.527 185.311" fill="#E0E0E0"/>
<path d="M190.949 192.78C188.247 193.109 185.889 194.536 183.865 196.362C181.837 198.212 180.425 200.638 179.817 203.315C182.473 203.153 184.725 201.291 186.354 199.186C187.984 197.081 189.122 194.784 190.908 192.82" fill="#E0E0E0"/>
<path d="M191.921 194.039C190.856 191.335 190.484 188.409 190.838 185.525C191.191 182.64 192.259 179.89 193.945 177.523C195.488 183.003 194.921 189.197 191.921 194.039Z" fill="#E0E0E0"/>
<path d="M197.805 201.053C195.332 200.899 192.869 201.476 190.722 202.712C188.575 203.948 186.84 205.789 185.732 208.005C185.58 208.304 185.449 208.683 185.651 208.951C185.755 209.052 185.883 209.126 186.022 209.167C186.161 209.208 186.308 209.213 186.451 209.184C188.829 209.032 190.939 207.6 192.679 205.971C194.42 204.342 195.938 202.454 197.861 201.048" fill="#E0E0E0"/>
<path d="M197.618 200.673C196.351 196.591 196.274 192.233 197.395 188.109C197.836 186.49 198.579 184.79 200.077 184.031C200.137 183.991 200.204 183.963 200.274 183.951C200.345 183.939 200.418 183.942 200.487 183.96C200.607 184.023 200.7 184.13 200.745 184.258C201.246 185.39 201.464 186.627 201.378 187.861C201.288 189.091 201.098 190.311 200.811 191.509C200.34 193.741 200.092 196.139 198.868 198.062C198.577 198.524 198.317 199.004 198.089 199.499C197.856 200.005 197.856 200.162 197.643 200.552" fill="#E0E0E0"/>
<path d="M213.203 202.996C212.05 198.599 213.274 193.276 216.042 189.673C216.249 189.41 216.518 189.126 216.851 189.167C217.357 189.213 217.494 189.896 217.469 190.407C217.261 194.924 215.783 199.292 213.203 203.006" fill="#E0E0E0"/>
<path d="M214.61 203.952C219.948 205.344 226.071 203.993 230.508 200.719C227.848 199.386 224.809 199.014 221.906 199.666C219.032 200.324 216.406 201.609 214.615 203.952" fill="#E0E0E0"/>
<path d="M215.794 201.027C218.784 196.155 224.512 192.977 230.225 192.688C229.567 195.011 227.655 196.812 225.504 197.905C223.354 198.998 220.95 199.469 218.577 199.929C217.656 200.106 216.391 200.304 215.794 201.027Z" fill="#E0E0E0"/>
<path d="M213.501 186.839C214.311 184.066 215.126 181.273 215.348 178.389C215.571 175.505 215.156 172.504 213.663 170.03C210.87 175.434 210.592 181.744 213.415 187.128" fill="#E0E0E0"/>
<path d="M222.903 182.088C226.167 176.153 232.826 171.416 239.565 170.749C236.965 177.225 229.876 182.225 222.903 182.088Z" fill="#E0E0E0"/>
<path d="M220.848 183.252C225.716 183.991 229.865 187.102 234.414 188.985C235.367 189.447 236.425 189.65 237.481 189.572C237.973 189.569 238.453 189.415 238.855 189.131C239.257 188.846 239.561 188.445 239.727 187.981C239.893 187.517 239.912 187.014 239.781 186.539C239.651 186.064 239.378 185.641 238.999 185.326C238.354 184.732 237.597 184.273 236.772 183.975C231.813 181.911 226.5 181.86 221.278 183.11" fill="#E0E0E0"/>
<path d="M218.03 186.667C219.133 186.981 219.508 187.553 220.383 188.297C223.36 190.826 226.88 192.634 230.67 193.579C231.065 193.675 231.576 193.716 231.773 193.362C231.971 193.007 231.728 192.673 231.505 192.4C229.853 190.461 227.708 189.003 225.296 188.18C222.918 187.3 220.864 186.232 218.03 186.46" fill="#E0E0E0"/>
<path d="M214.847 166.038C216.845 167.876 219.206 169.276 221.778 170.148C224.349 171.019 227.075 171.343 229.779 171.098C230.027 171.103 230.269 171.016 230.457 170.855C230.832 170.445 230.381 169.812 229.951 169.473C225.559 166.053 220.246 164.631 214.852 166.017" fill="#E0E0E0"/>
<path d="M218.616 164.661C221.259 162.716 224.325 161.423 227.563 160.888C230.801 160.353 234.119 160.592 237.247 161.585C234.9 163.897 231.646 165.127 228.367 165.481C225.094 165.781 221.794 165.503 218.616 164.661Z" fill="#E0E0E0"/>
<path d="M217.12 155.184C216.69 150.802 216.968 147.346 216.664 142.943C216.664 142.589 216.568 142.169 216.239 142.043C215.779 141.866 215.399 142.427 215.227 142.893C214.589 144.933 214.426 147.093 214.749 149.206C215.073 151.32 215.875 153.331 217.094 155.087" fill="#E0E0E0"/>
<path d="M216.805 155.664C219.776 153.828 222.002 151.434 224.061 148.616C225.493 146.652 226.703 144.305 226.379 141.896C224.355 141.856 222.452 142.964 221.142 144.497C219.893 146.084 218.985 147.912 218.475 149.866C217.893 151.793 217.489 153.772 216.805 155.664Z" fill="#E0E0E0"/>
<path d="M223.935 153.686C230.466 151.267 236.513 147.701 241.791 143.156C239.661 142.296 237.237 142.812 235.087 143.662C230.214 145.631 226.232 148.95 223.844 153.626" fill="#E0E0E0"/>
<path d="M218.809 158.063C222.108 158.422 225.458 158.66 228.726 158.113C231.995 157.567 234.981 156.302 237.981 155.037C238.249 154.955 238.475 154.774 238.614 154.531C238.66 154.392 238.663 154.242 238.623 154.101C238.582 153.96 238.499 153.835 238.386 153.742C238.156 153.558 237.885 153.431 237.597 153.372C234.333 152.456 230.806 152.866 227.593 153.969C224.532 155.008 221.587 156.365 218.809 158.017" fill="#E0E0E0"/>
<path d="M199.986 166.19C197.739 161.636 197.886 156.353 199.824 151.672C201.195 153.757 201.342 156.409 201.109 158.893C200.877 161.377 200.097 163.923 200.057 166.417" fill="#E0E0E0"/>
<path d="M190.999 161.656C188.184 161.619 185.392 162.17 182.801 163.274C180.211 164.378 177.88 166.01 175.956 168.067C178.759 168.507 181.643 167.783 184.194 166.549C186.744 165.314 189.011 163.558 191.278 161.823" fill="#E0E0E0"/>
<path d="M184.962 159.636C182.215 159.414 179.568 159.075 176.927 159.884C174.286 160.694 171.867 162.531 170.81 165.076C173.401 165.284 176.001 164.793 178.339 163.654C180.662 162.515 182.879 161.17 184.962 159.636Z" fill="#E0E0E0"/>
<path d="M193.903 159.728C191.434 158.109 188.894 156.464 186.02 155.791C183.146 155.118 179.806 155.614 177.797 157.785C180.13 159.151 182.954 159.303 185.656 159.303C188.358 159.303 191.667 159.267 194.212 160.168" fill="#E0E0E0"/>
<path d="M193.919 159.859C189.694 155.71 188.095 148.257 189.796 142.589C193.13 147.694 194.587 153.799 193.919 159.859Z" fill="#E0E0E0"/>
<path d="M205.537 148.105C206.336 146.253 206.893 144.31 207.611 142.422C208.262 140.509 209.262 138.733 210.561 137.185C211.884 135.63 213.765 134.656 215.799 134.473C215.147 137.331 213.908 140.022 212.16 142.374C210.411 144.726 208.192 146.688 205.643 148.135" fill="#E0E0E0"/>
<path d="M203.437 150.554C202.116 148.743 200.593 146.279 198.807 144.922C197.021 143.566 194.688 142.747 192.507 143.268C193.638 145.248 195.214 146.937 197.111 148.202C199.008 149.467 201.174 150.272 203.437 150.554Z" fill="#E0E0E0"/>
<path d="M203.857 148.252C202.991 146.056 202.121 143.835 201.772 141.502C201.423 139.169 201.635 136.675 202.829 134.641C205.147 139.023 205.896 143.749 203.973 148.303" fill="#E0E0E0"/>
<path d="M205.557 134.645C206.872 130.299 210.849 127.096 215.145 125.629C215.679 125.412 216.257 125.326 216.83 125.376C217.116 125.409 217.385 125.525 217.605 125.709C217.826 125.893 217.987 126.138 218.07 126.413C218.227 127.152 217.615 127.814 217.058 128.305C213.698 131.172 209.793 133.329 205.577 134.645" fill="#E0E0E0"/>
<path d="M205.608 131.088C205.775 128.29 205.947 125.446 206.858 122.79C207.768 120.133 209.529 117.644 212.085 116.485C212.52 119.313 211.27 122.127 209.762 124.581C208.254 127.035 206.443 129.312 205.537 132.029" fill="#E0E0E0"/>
<path d="M205.537 133.021C204.454 129.854 204.338 125.831 202.445 123.068C201.119 121.14 198.994 119.825 197.851 117.786C197.161 119.744 197.257 121.893 198.119 123.782C198.98 125.651 200.168 127.353 201.625 128.806C203.032 130.324 204.231 131.432 205.537 133.021Z" fill="#E0E0E0"/>
<path d="M205.557 226.292C205.476 226.292 205.4 205.162 205.395 179.108C205.39 153.054 205.451 131.913 205.537 131.913C205.623 131.913 205.694 153.039 205.699 179.108C205.704 205.177 205.643 226.292 205.557 226.292Z" fill="#E0E0E0"/>
<path d="M224.021 163.001C223.766 163.126 223.5 163.226 223.227 163.3L221.041 164.039C219.199 164.666 216.664 165.557 213.916 166.7C211.169 167.844 208.628 168.815 207.166 170.08C206.584 170.569 206.12 171.183 205.81 171.877C205.603 172.383 205.567 172.676 205.537 172.671C205.525 172.597 205.525 172.522 205.537 172.448C205.57 172.238 205.622 172.032 205.694 171.831C205.969 171.094 206.423 170.437 207.014 169.918C207.897 169.173 208.884 168.561 209.944 168.102C211.113 167.555 212.413 166.984 213.79 166.417C216.547 165.289 219.103 164.393 220.965 163.831C221.896 163.543 222.655 163.325 223.186 163.184C223.458 163.096 223.738 163.035 224.021 163.001Z" fill="#E0E0E0"/>
<path d="M230.073 148.136C230.073 148.136 230.007 148.227 229.851 148.374L229.172 149.011L226.642 151.308L218.218 158.812C214.929 161.737 212.09 164.535 210.122 166.64C209.135 167.693 208.356 168.563 207.824 169.17C207.581 169.454 207.379 169.676 207.212 169.868C207.045 170.061 206.994 170.111 206.984 170.101C207.037 170.006 207.098 169.917 207.167 169.833C207.293 169.661 207.48 169.408 207.733 169.094C208.239 168.462 208.993 167.576 209.96 166.493C212.502 163.716 215.191 161.076 218.015 158.585C221.314 155.66 224.32 153.019 226.501 151.146L229.097 148.92L229.81 148.328C229.89 148.254 229.978 148.19 230.073 148.136Z" fill="#E0E0E0"/>
<path d="M214.671 161.787C214.585 161.747 215.268 160.163 215.956 158.154C216.644 156.145 216.968 154.455 217.059 154.47C217.15 154.485 216.943 156.221 216.244 158.255C215.953 159.116 215.615 159.961 215.232 160.785C215.094 161.144 214.905 161.482 214.671 161.787Z" fill="#E0E0E0"/>
<path d="M205.577 174.564C205.388 174.387 205.218 174.19 205.071 173.977L203.77 172.312C202.683 170.9 201.175 168.957 199.485 166.827C197.795 164.697 196.241 162.779 195.118 161.408L193.797 159.773C193.624 159.581 193.471 159.371 193.342 159.146C193.542 159.311 193.725 159.496 193.888 159.698C194.227 160.062 194.708 160.603 195.29 161.276C196.459 162.627 198.043 164.515 199.733 166.65C201.423 168.785 202.91 170.749 203.958 172.191C204.464 172.914 204.894 173.501 205.177 173.916C205.329 174.12 205.463 174.337 205.577 174.564Z" fill="#E0E0E0"/>
<path d="M201.529 169.377C201.479 169.433 200.401 168.148 199.834 166.205C199.515 165.169 199.385 164.084 199.45 163.002H199.581C199.526 163.245 199.48 163.376 199.455 163.371C199.429 163.366 199.429 163.229 199.455 162.981H199.591C199.655 164.036 199.836 165.08 200.133 166.093C200.674 167.986 201.61 169.327 201.529 169.377Z" fill="#E0E0E0"/>
<path d="M196.327 162.805C195.963 162.526 195.566 162.295 195.143 162.116C194.078 161.798 192.957 161.708 191.854 161.853C190.738 161.939 189.631 162.119 188.545 162.39C188.1 162.532 187.645 162.64 187.184 162.713C187.59 162.473 188.03 162.294 188.489 162.182C189.576 161.844 190.699 161.632 191.834 161.55C192.977 161.398 194.14 161.523 195.224 161.914C195.685 162.072 196.076 162.387 196.327 162.805Z" fill="#E0E0E0"/>
<path d="M195.063 161.211C195.063 161.256 194.375 160.932 193.251 160.548C190.312 159.541 187.165 159.302 184.108 159.854C182.939 160.062 182.231 160.279 182.215 160.229C182.363 160.136 182.526 160.067 182.696 160.026C183.145 159.869 183.603 159.741 184.067 159.642C187.154 158.964 190.373 159.208 193.322 160.345C193.765 160.515 194.198 160.711 194.617 160.932C194.916 161.094 195.073 161.19 195.063 161.211Z" fill="#E0E0E0"/>
<path d="M205.537 154.471C205.456 154.471 204.864 152.447 204.217 149.876C203.569 147.306 203.104 145.226 203.205 145.206C203.306 145.185 203.878 147.23 204.525 149.8C205.173 152.371 205.618 154.45 205.537 154.471Z" fill="#E0E0E0"/>
<path d="M205.623 154.471C205.532 154.501 205.147 153.125 204.156 151.718C203.534 150.887 202.808 150.138 201.995 149.492C202.303 149.569 202.589 149.716 202.83 149.922C203.442 150.37 203.975 150.92 204.404 151.546C205.058 152.398 205.479 153.406 205.623 154.471Z" fill="#E0E0E0"/>
<path d="M205.557 215.044C205.526 215.044 205.461 214.538 205.223 213.637C204.874 212.374 204.401 211.148 203.811 209.979C202.354 206.998 199.697 203.213 196.322 199.429C194.647 197.516 193.028 195.715 191.652 193.989C190.416 192.469 189.298 190.857 188.307 189.167C187.645 188.026 187.081 186.831 186.622 185.595C186.465 185.149 186.354 184.81 186.288 184.583C186.245 184.451 186.217 184.315 186.207 184.178C186.238 184.178 186.389 184.684 186.739 185.524C187.238 186.736 187.827 187.91 188.499 189.035C189.508 190.699 190.636 192.287 191.874 193.787C193.256 195.492 194.88 197.288 196.555 199.201C199.94 203.001 202.592 206.826 204.013 209.862C204.59 211.052 205.037 212.301 205.344 213.586C205.428 213.935 205.491 214.288 205.531 214.644C205.555 214.776 205.564 214.91 205.557 215.044Z" fill="#E0E0E0"/>
<path d="M222.245 196.185C221.963 196.371 221.671 196.54 221.369 196.691C220.578 197.142 219.82 197.649 219.102 198.209C218.039 199.035 217.043 199.944 216.122 200.926C215.075 202.029 213.997 203.315 212.899 204.686C210.703 207.444 208.648 209.882 207.419 211.831C206.791 212.797 206.336 213.612 206.037 214.183C205.9 214.489 205.739 214.783 205.557 215.064C205.571 214.978 205.598 214.894 205.638 214.816C205.703 214.659 205.794 214.421 205.931 214.133C206.317 213.302 206.751 212.494 207.231 211.714C208.431 209.721 210.47 207.246 212.661 204.494C213.764 203.117 214.852 201.832 215.92 200.729C216.856 199.749 217.871 198.849 218.956 198.037C219.693 197.492 220.477 197.013 221.298 196.605C221.587 196.458 221.804 196.367 221.981 196.301C222.06 196.245 222.15 196.205 222.245 196.185Z" fill="#E0E0E0"/>
<path d="M222.569 202.297C221.961 202.434 221.344 202.523 220.722 202.566C219.238 202.719 217.772 203.007 216.34 203.426C214.925 203.888 213.598 204.584 212.414 205.485C211.508 206.189 211.083 206.765 211.042 206.73C211.106 206.572 211.198 206.428 211.315 206.305C211.603 205.937 211.925 205.599 212.277 205.293C213.447 204.318 214.794 203.578 216.244 203.112C217.695 202.682 219.191 202.417 220.702 202.323C221.322 202.257 221.947 202.248 222.569 202.297Z" fill="#E0E0E0"/>
<path d="M211.578 206.062C211.482 206.006 212.317 204.731 212.959 203.026C213.602 201.321 213.708 199.788 213.819 199.803C213.867 200.139 213.857 200.482 213.789 200.815C213.697 201.612 213.515 202.396 213.248 203.153C212.968 203.903 212.608 204.62 212.175 205.293C212.019 205.58 211.818 205.84 211.578 206.062Z" fill="#E0E0E0"/>
<path d="M227.649 179.771C227.555 179.832 227.455 179.884 227.351 179.927L226.481 180.322C226.101 180.484 225.641 180.691 225.119 180.965C224.598 181.238 223.991 181.511 223.353 181.896L222.341 182.467C221.992 182.67 221.643 182.908 221.279 183.135C220.535 183.591 219.791 184.147 218.997 184.709C215.593 187.251 212.623 190.326 210.203 193.817C209.666 194.632 209.135 195.396 208.71 196.155C208.492 196.529 208.265 196.883 208.077 197.238L207.536 198.25C207.177 198.897 206.924 199.515 206.671 200.046C206.418 200.577 206.22 201.058 206.074 201.432L205.709 202.313C205.672 202.419 205.623 202.521 205.562 202.616C205.578 202.505 205.607 202.397 205.649 202.293C205.735 202.055 205.836 201.756 205.962 201.387C206.122 200.909 206.307 200.44 206.514 199.98C206.752 199.439 206.994 198.811 207.344 198.153L207.85 197.111C208.032 196.752 208.254 196.393 208.472 196.008C208.887 195.239 209.413 194.49 209.95 193.645C212.36 190.11 215.354 187.012 218.805 184.481C219.614 183.915 220.368 183.363 221.122 182.918C221.496 182.69 221.846 182.457 222.2 182.26L223.212 181.698C223.854 181.329 224.477 181.061 225.008 180.808C225.459 180.583 225.922 180.382 226.395 180.206L227.29 179.867C227.405 179.817 227.526 179.785 227.649 179.771Z" fill="#E0E0E0"/>
<path d="M214.442 188.615C214.566 188.19 214.819 187.813 215.165 187.538C215.978 186.828 217.016 186.43 218.095 186.414C219.151 186.407 220.197 186.612 221.172 187.016C221.585 187.147 221.976 187.336 222.335 187.578C221.92 187.496 221.513 187.374 221.121 187.214C220.155 186.883 219.142 186.712 218.121 186.708C217.109 186.729 216.13 187.073 215.327 187.689C215.011 187.977 214.715 188.286 214.442 188.615Z" fill="#E0E0E0"/>
<path d="M212.469 190.654C212.383 190.609 213.127 189.516 213.299 187.952C213.471 186.389 213.021 185.154 213.112 185.129C213.203 185.104 213.314 185.402 213.456 185.918C213.816 187.279 213.648 188.725 212.985 189.966C212.727 190.432 212.52 190.675 212.469 190.654Z" fill="#E0E0E0"/>
<path d="M190.964 218.08C191.42 226.176 193.854 234.368 197.598 242.671H213.871C217.443 234.423 219.705 226.226 220.11 218.08H190.964Z" fill="#E0E0E0"/>
<path d="M217.473 231.12C217.473 231.206 212.114 231.276 205.501 231.276C198.888 231.276 193.534 231.206 193.534 231.12C193.534 231.034 198.893 230.968 205.501 230.968C212.109 230.968 217.473 231.039 217.473 231.12Z" fill="#FAFAFA"/>
<path d="M217.109 234.044C217.109 234.13 212.084 234.201 205.891 234.201C199.698 234.201 194.668 234.13 194.668 234.044C194.668 233.958 199.693 233.892 205.891 233.892C212.09 233.892 217.109 233.963 217.109 234.044Z" fill="#FAFAFA"/>
<path d="M197.846 223.357C198.048 225.853 198.048 228.361 197.846 230.856C197.76 230.856 197.694 229.176 197.694 227.107C197.694 225.037 197.775 223.357 197.846 223.357Z" fill="#FAFAFA"/>
<path d="M206.579 223.357C206.665 223.357 206.731 225.093 206.731 227.238C206.731 229.384 206.665 231.119 206.579 231.119C206.493 231.119 206.427 229.384 206.427 227.238C206.427 225.093 206.493 223.357 206.579 223.357Z" fill="#FAFAFA"/>
<path d="M214.766 223.292C214.852 223.292 214.918 225.063 214.918 227.248C214.918 229.434 214.852 231.21 214.766 231.21C214.68 231.21 214.615 229.439 214.615 227.248C214.615 225.057 214.68 223.292 214.766 223.292Z" fill="#FAFAFA"/>
<path d="M219.604 223.357C219.604 223.443 213.319 223.509 205.567 223.509C197.815 223.509 191.531 223.443 191.531 223.357C191.531 223.271 197.81 223.206 205.567 223.206C213.324 223.206 219.604 223.271 219.604 223.357Z" fill="#FAFAFA"/>
<path d="M210.86 142.802H26.4331V148.485H210.86V142.802Z" fill="#EBEBEB"/>
<path d="M42.3872 147.786L28.5684 242.646H31.5335L48.5756 148.484L42.3872 147.786Z" fill="#EBEBEB"/>
<path d="M197.835 147.184L212.413 242.646H209.453L191.642 148.054L197.835 147.184Z" fill="#EBEBEB"/>
<path d="M33.4361 119.916V132.707H31.3008V134.084H33.4361V142.645H73.3696V134.853H70.4146V133.152H73.3696V130.622H74.6852V129.469H73.1166V119.916H33.4361Z" fill="#F5F5F5"/>
<path d="M62.7583 119.936V142.499H73.359V134.711H70.404V133.158L73.359 133.209V130.663H74.6999L74.6746 129.348L73.1161 129.312V119.901L62.7583 119.936Z" fill="#E0E0E0"/>
<path d="M63.5127 133.897C63.5127 133.978 56.2921 134.038 47.3815 134.038C38.4708 134.038 31.2451 133.978 31.2451 133.897C31.2451 133.816 38.4708 133.755 47.3815 133.755C56.2921 133.755 63.5127 133.821 63.5127 133.897Z" fill="#E0E0E0"/>
<path d="M63.5127 132.596C63.5127 132.677 56.2921 132.738 47.3815 132.738C38.4708 132.738 31.2451 132.677 31.2451 132.596C31.2451 132.515 38.4708 132.455 47.3815 132.455C56.2921 132.455 63.5127 132.52 63.5127 132.596Z" fill="#E0E0E0"/>
<path d="M65.5874 129.1C65.5874 129.181 58.3618 129.241 49.4562 129.241C40.5506 129.241 33.3198 129.181 33.3198 129.1C33.3198 129.019 40.5404 128.958 49.4562 128.958C58.3719 128.958 65.5874 129.024 65.5874 129.1Z" fill="#E0E0E0"/>
<path d="M65.7793 138.637C65.7793 138.718 58.5587 138.784 49.6481 138.784C40.7374 138.784 33.5117 138.718 33.5117 138.637C33.5117 138.556 40.7323 138.496 49.6481 138.496C58.5638 138.496 65.7793 138.551 65.7793 138.637Z" fill="#E0E0E0"/>
<path d="M76.3195 111.334H69.3569V119.612H76.3195V111.334Z" fill="#F5F5F5"/>
<path d="M69.5949 110.792H38.1318V120.128H69.5949V110.792Z" fill="#E0E0E0"/>
<path d="M76.5272 111.582H68.75V110.808H76.5272C76.6319 110.808 76.7323 110.849 76.8063 110.923C76.8803 110.997 76.9219 111.098 76.9219 111.202C76.918 111.304 76.8747 111.401 76.8011 111.472C76.7275 111.542 76.6293 111.582 76.5272 111.582Z" fill="#E0E0E0"/>
<path d="M76.5272 120.133H68.75V119.344H76.5272C76.6319 119.344 76.7323 119.385 76.8063 119.459C76.8803 119.533 76.9219 119.634 76.9219 119.738C76.9219 119.843 76.8803 119.943 76.8063 120.018C76.7323 120.092 76.6319 120.133 76.5272 120.133Z" fill="#E0E0E0"/>
<path d="M67.1258 110.792H63.4067V120.128H67.1258V110.792Z" fill="#EBEBEB"/>
<path d="M44.8461 110.899H41.127V120.235H44.8461V110.899Z" fill="#EBEBEB"/>
<path d="M76.3203 112.705C76.3203 112.705 74.8023 112.745 72.9554 112.745C71.1085 112.745 69.5854 112.745 69.5854 112.705C69.5854 112.664 71.1034 112.659 72.9554 112.659C74.8074 112.659 76.3203 112.679 76.3203 112.705Z" fill="#E0E0E0"/>
<path d="M76.3203 113.945C76.3203 113.945 74.8023 113.986 72.9554 113.986C71.1085 113.986 69.5854 113.986 69.5854 113.945C69.5854 113.905 71.1034 113.905 72.9554 113.905C74.8074 113.905 76.3203 113.92 76.3203 113.945Z" fill="#E0E0E0"/>
<path d="M76.3203 115.473C76.3203 115.473 74.8023 115.514 72.9554 115.514C71.1085 115.514 69.5854 115.514 69.5854 115.473C69.5854 115.433 71.1034 115.433 72.9554 115.433C74.8074 115.433 76.3203 115.448 76.3203 115.473Z" fill="#E0E0E0"/>
<path d="M76.3203 117.001C76.3203 117.001 74.8023 117.041 72.9554 117.041C71.1085 117.041 69.5854 117.041 69.5854 117.001C69.5854 116.96 71.1034 116.96 72.9554 116.96C74.8074 116.96 76.3203 116.976 76.3203 117.001Z" fill="#E0E0E0"/>
<path d="M76.3203 118.529C76.3203 118.529 74.8023 118.57 72.9554 118.57C71.1085 118.57 69.5854 118.57 69.5854 118.529C69.5854 118.489 71.1034 118.489 72.9554 118.489C74.8074 118.489 76.3203 118.504 76.3203 118.529Z" fill="#E0E0E0"/>
<path d="M61.4028 114.633H47.25V116.313H61.4028V114.633Z" fill="#EBEBEB"/>
<path d="M62.9871 101.73L66.9036 110.929H64.3837L62.6431 106.016L62.9871 101.73Z" fill="#E0E0E0"/>
<path d="M50.9646 93.4111L49.4517 110.929H62.2484L63.6551 93.4111H50.9646Z" fill="#EBEBEB"/>
<path d="M52.2139 94.7979L50.8882 109.472L60.4971 109.598L61.7925 94.7119L52.2139 94.7979Z" fill="#FAFAFA"/>
<path d="M54.253 96.832L53.499 106.927H58.6248L59.5255 96.832H54.253Z" fill="#E0E0E0"/>
<path d="M201.307 28.2972L196.576 28.3228L196.703 51.8666L201.434 51.841L201.307 28.2972Z" fill="#E0E0E0"/>
<path d="M167.836 28.357L155.581 28.4233L155.651 41.4223L167.907 41.356L167.836 28.357Z" fill="#EBEBEB"/>
<path d="M180.031 28.296L167.776 28.3623L167.846 41.3613L180.101 41.2949L180.031 28.296Z" fill="#F5F5F5"/>
<path d="M155.6 32.0235C163.741 32.0943 171.908 32.0235 180.05 31.9122C180.079 31.9062 180.106 31.8901 180.126 31.8666C180.145 31.8431 180.155 31.8136 180.155 31.7831C180.155 31.7527 180.145 31.7232 180.126 31.6997C180.106 31.6762 180.079 31.6601 180.05 31.6541C171.91 31.6069 163.761 31.6558 155.605 31.8009C155.575 31.8009 155.547 31.8126 155.526 31.8335C155.505 31.8543 155.493 31.8827 155.493 31.9122C155.493 31.9417 155.505 31.97 155.526 31.9909C155.547 32.0118 155.575 32.0235 155.605 32.0235H155.6Z" fill="#E0E0E0"/>
<path d="M170.208 41.1461L147.944 41.2666L148.001 51.857L170.265 51.7366L170.208 41.1461Z" fill="#EBEBEB"/>
<path d="M192.365 41.0211L170.101 41.1416L170.159 51.732L192.422 51.6116L192.365 41.0211Z" fill="#F5F5F5"/>
<path d="M147.954 44.2185C162.744 44.3855 177.585 44.2185 192.376 44.0009C192.41 44.0009 192.444 43.9871 192.469 43.9624C192.493 43.9377 192.507 43.9042 192.507 43.8694C192.507 43.8345 192.493 43.801 192.469 43.7763C192.444 43.7517 192.41 43.7378 192.376 43.7378C177.585 43.6619 162.739 43.667 147.954 43.9959C147.924 43.9959 147.896 44.0076 147.875 44.0285C147.854 44.0493 147.843 44.0776 147.843 44.1072C147.843 44.1367 147.854 44.165 147.875 44.1859C147.896 44.2068 147.924 44.2185 147.954 44.2185Z" fill="#E0E0E0"/>
<path d="M225.884 51.8638H139.631V55.6588H225.884V51.8638Z" fill="#E0E0E0"/>
<path d="M157.254 53.6904H153.752V66.639H157.254V53.6904Z" fill="#E0E0E0"/>
<path d="M209.524 53.6904H206.023V66.639H209.524V53.6904Z" fill="#E0E0E0"/>
<path d="M205.92 19.5188L201.189 19.5444L201.364 51.928L206.095 51.9024L205.92 19.5188Z" fill="#EBEBEB"/>
<path d="M213.315 25.5506L205.963 25.5903L206.105 51.8311L213.457 51.7913L213.315 25.5506Z" fill="#F5F5F5"/>
<path d="M213.269 30.6118C212.047 30.7386 210.818 30.7808 209.591 30.7383C208.365 30.781 207.137 30.7387 205.917 30.6118C208.365 30.4432 210.821 30.4432 213.269 30.6118Z" fill="#E0E0E0"/>
<path d="M213.269 29.5088C212.047 29.6356 210.818 29.6778 209.591 29.6353C208.365 29.6779 207.137 29.6357 205.917 29.5088C208.365 29.3402 210.821 29.3402 213.269 29.5088Z" fill="#E0E0E0"/>
<path d="M213.269 47.8511C210.821 48.0198 208.365 48.0198 205.917 47.8511C208.365 47.6824 210.821 47.6824 213.269 47.8511Z" fill="#E0E0E0"/>
<path d="M213.269 46.7481C210.821 46.9167 208.365 46.9167 205.917 46.7481C208.365 46.5794 210.821 46.5794 213.269 46.7481Z" fill="#E0E0E0"/>
<path d="M209.711 44.3448C209.641 44.3448 209.58 41.6984 209.58 38.4296C209.58 35.1609 209.641 32.5195 209.711 32.5195C209.782 32.5195 209.838 35.1659 209.838 38.4296C209.838 41.6933 209.777 44.3448 209.711 44.3448Z" fill="#E0E0E0"/>
<path d="M221.349 32.0034H213.344V51.8133H221.349V32.0034Z" fill="#EBEBEB"/>
<path d="M204.849 25.0558C204.85 25.3252 204.771 25.5889 204.622 25.8134C204.473 26.0379 204.261 26.2131 204.012 26.3169C203.764 26.4207 203.49 26.4484 203.226 26.3964C202.961 26.3445 202.718 26.2153 202.527 26.0251C202.337 25.835 202.206 25.5924 202.153 25.3283C202.101 25.0641 202.127 24.7901 202.23 24.5411C202.333 24.2921 202.507 24.0792 202.731 23.9295C202.955 23.7797 203.219 23.6997 203.488 23.6997C203.848 23.6997 204.194 23.8424 204.449 24.0966C204.704 24.3508 204.848 24.6957 204.849 25.0558Z" fill="#E0E0E0"/>
<path d="M203.908 28.8003H203.068V48.0637H203.908V28.8003Z" fill="#E0E0E0"/>
<path d="M232.684 242.646C232.684 242.717 185.12 242.778 126.505 242.778C67.89 242.778 20.3159 242.717 20.3159 242.646C20.3159 242.575 67.8495 242.515 126.505 242.515C185.161 242.515 232.684 242.57 232.684 242.646Z" fill="#263238"/>
<path d="M125.635 178.546L146.498 242.646H142.698L118.258 178.546H125.635Z" fill="#E0E0E0"/>
<path d="M125.635 178.546H125.129H123.712L118.238 178.577L118.288 178.501C122.478 189.415 131.51 213.02 141.974 240.344C142.257 241.093 142.541 241.862 142.824 242.575L142.703 242.494H146.498L146.371 242.666C140.547 224.698 135.35 208.684 131.611 197.157C129.749 191.383 128.251 186.738 127.219 183.525C126.713 181.921 126.308 180.676 126.035 179.826L125.731 178.86C125.666 178.642 125.635 178.526 125.635 178.526C125.635 178.526 125.676 178.627 125.747 178.84L126.065 179.786C126.344 180.631 126.753 181.86 127.28 183.449C128.332 186.652 129.85 191.282 131.743 197.03C135.512 208.572 140.749 224.602 146.619 242.57L146.675 242.742H142.627L142.591 242.656C142.313 241.918 142.025 241.174 141.741 240.425C131.343 213.06 122.361 189.43 118.217 178.531V178.455H118.298L123.804 178.485H125.205C125.489 178.536 125.635 178.546 125.635 178.546Z" fill="#263238"/>
<path d="M84.5787 178.546L63.7163 242.646H67.5113L91.9562 178.546H84.5787Z" fill="#E0E0E0"/>
<path d="M84.5785 178.546C84.5785 178.546 84.7354 178.546 85.0491 178.546H86.4507L91.956 178.516H92.0369L92.0066 178.592C87.8675 189.491 78.886 213.121 68.4877 240.485L67.6326 242.717L67.6022 242.803H63.5542L63.6099 242.631L78.4913 197.091L82.9542 183.51C83.4602 181.921 83.8903 180.691 84.1686 179.846L84.4874 178.9C84.5583 178.688 84.5987 178.586 84.5987 178.586C84.5987 178.586 84.5684 178.703 84.5026 178.92L84.199 179.887C83.9258 180.737 83.526 181.982 83.015 183.586C81.9777 186.799 80.485 191.444 78.6229 197.217C74.8785 208.744 69.6869 224.759 63.8629 242.727L63.7364 242.555H67.5314L67.4099 242.636L68.26 240.404C78.7241 213.08 87.7562 189.455 91.9206 178.566L91.9762 178.642L86.4962 178.612H85.0845L84.5785 178.546Z" fill="#263238"/>
<path d="M118.794 179.953C118.68 180.05 118.558 180.138 118.43 180.216L117.357 180.924L113.406 183.515C110.071 185.711 105.471 188.757 100.416 192.147L87.473 200.876L83.5465 203.512L82.4788 204.19C82.3582 204.28 82.2295 204.358 82.0942 204.423C82.2056 204.323 82.324 204.232 82.4484 204.15L83.4908 203.406L87.3718 200.704C90.6558 198.437 95.2148 195.325 100.275 191.935C105.335 188.545 109.944 185.519 113.309 183.363C114.989 182.29 116.345 181.425 117.307 180.833L118.405 180.165C118.529 180.085 118.659 180.014 118.794 179.953Z" fill="#263238"/>
<path d="M78.7695 110.211C78.7695 110.211 72.232 110.884 71.2807 114.82C70.3294 118.757 67.2327 167.444 71.2807 174.341C75.3287 181.238 127.447 180.277 131.065 179.33C134.683 178.384 136.388 176.036 136.018 173.167C135.649 170.298 100.158 166.741 100.158 166.741L102.324 115.929C102.324 115.929 89.5625 109.502 78.7695 110.211Z" fill="#263238"/>
<path d="M136.048 174.397H135.892H135.426L133.64 174.442C132.086 174.483 129.84 174.503 127.062 174.498C121.496 174.498 113.83 174.306 105.375 173.699C101.15 173.39 97.1268 173 93.4786 172.585C89.8303 172.17 86.5514 171.715 83.8089 171.285C82.4326 171.083 81.198 170.865 80.1101 170.683C79.0222 170.501 78.0861 170.334 77.322 170.177L75.5662 169.838L75.1108 169.747L74.959 169.706C75.0111 169.699 75.0638 169.699 75.1158 169.706L75.5763 169.772L77.3422 170.06C78.1063 170.192 79.0424 170.349 80.1354 170.511C81.2283 170.673 82.463 170.885 83.8342 171.072C86.5818 171.482 89.8607 171.902 93.5039 172.317C97.1471 172.732 101.17 173.102 105.395 173.41C113.845 174.017 121.511 174.225 127.062 174.286C129.835 174.316 132.081 174.321 133.64 174.316H135.897L136.048 174.397Z" fill="#455A64"/>
<path d="M128.399 205.142C128.358 205.202 120.1 199.398 109.96 192.188C99.8198 184.977 91.6276 179.072 91.6681 179.032C91.7086 178.991 99.9665 184.775 110.112 191.991C120.257 199.206 128.439 205.081 128.399 205.142Z" fill="#263238"/>
<path d="M83.3887 66.4979L79.2142 59.1457C81.7925 54.9595 82.7117 49.9603 81.7912 45.1308C80.8707 40.3013 78.177 35.9907 74.2396 33.0464C70.3022 30.1022 65.406 28.7371 60.5132 29.2196C55.6205 29.7021 51.0852 31.9973 47.7988 35.654C44.5123 39.3106 42.7125 44.0643 42.7531 48.9806C42.7937 53.8969 44.6717 58.6202 48.018 62.2222C51.3644 65.8241 55.9369 68.0441 60.837 68.4458C65.737 68.8474 70.6101 67.4018 74.4983 64.3929L83.3887 66.4979Z" fill="white"/>
<path d="M83.3893 66.4977L74.4736 64.4737H74.3522L74.428 64.3725L74.5394 64.4839C71.7986 66.6253 68.5386 68.0012 65.0924 68.4711C64.0603 68.6178 63.0171 68.672 61.9754 68.6331C61.439 68.6027 60.8926 68.5875 60.341 68.542L58.6763 68.294C53.7155 67.3207 49.3117 64.4946 46.3602 60.3903C44.7211 58.1265 43.5843 55.5388 43.0257 52.8003C42.4588 49.8957 42.5383 46.9018 43.2585 44.0313C44.0038 41.0354 45.4522 38.2601 47.4836 35.9353C49.5459 33.5491 52.148 31.6895 55.0736 30.511C57.8797 29.4029 60.899 28.9395 63.9083 29.1549C66.7502 29.351 69.5142 30.1698 72.0043 31.5534C76.4796 34.0289 79.8339 38.1277 81.3754 43.0042C81.9828 45.0857 82.2711 47.2472 82.2306 49.4152C82.1233 52.8732 81.1057 56.2418 79.2806 59.181V59.1L83.3893 66.4927C83.1161 66.0272 81.8308 63.8058 79.149 59.1759V59.1405V59.1C80.9349 56.1746 81.9207 52.8314 82.0079 49.4051C82.041 47.2647 81.7475 45.1319 81.1376 43.0801C79.6144 38.2594 76.3026 34.2053 71.8829 31.7507C69.426 30.3913 66.6999 29.5898 63.8982 29.4029C60.935 29.1925 57.9623 29.6508 55.2001 30.7438C52.3211 31.9057 49.7607 33.7375 47.7315 36.0871C45.7304 38.3766 44.3045 41.1105 43.5722 44.0617C42.8581 46.8865 42.7769 49.8342 43.3344 52.6941C43.8753 55.4033 44.9899 57.9654 46.6031 60.2082C49.5082 64.267 53.8509 67.0662 58.7471 68.036L60.3916 68.289C60.9381 68.3345 61.4745 68.3497 62.0058 68.3851C63.0352 68.4265 64.0664 68.3774 65.0873 68.2384C68.5019 67.7878 71.7375 66.4457 74.4685 64.3472L74.9745 63.9677L74.595 64.4737L74.5495 64.3523L83.3893 66.4977Z" fill="#263238"/>
<path d="M59.086 46.2074H60.3307L63.0429 42.4225V39.938C63.0429 39.938 64.9657 39.8216 64.7431 43.0702C64.5204 46.3187 64.7431 45.4939 64.7431 45.4939C64.7431 45.4939 68.8265 45.4939 69.1655 45.8683C69.4134 46.1213 69.5248 50.1795 69.5652 52.3755C69.5935 52.9062 69.4428 53.4311 69.1373 53.866C68.8318 54.3008 68.3891 54.6206 67.8803 54.7739C67.7369 54.8139 67.5888 54.8344 67.44 54.8347C66.428 54.8347 61.2213 54.0048 61.2213 54.0048H59.0708L59.086 46.2074Z" fill="#157C92"/>
<path d="M55.5244 45.5239L56.2935 54.0298H58.4238V45.696L55.5244 45.5239Z" fill="#157C92"/>
<path d="M162.108 153.312C162.108 153.312 173.817 153.312 174.297 164.222C174.778 175.131 140.213 232.684 140.213 232.684L129.269 227.487L152.737 171.64L101.813 166.63L103.255 153.819L162.108 153.312Z" fill="#FFBE9D"/>
<path d="M142.525 229.364L142.186 230.138C142.186 230.138 152.913 241.169 151.951 243.709L126.09 232.071L130.315 223.621C133.356 227.137 137.293 229.151 142.525 229.364Z" fill="#455A64"/>
<g opacity="0.6">
<path d="M131.697 227.557C131.414 227.522 131.128 227.591 130.893 227.753C130.658 227.914 130.49 228.156 130.422 228.433C130.375 228.714 130.438 229.003 130.598 229.24C130.758 229.476 131.003 229.642 131.282 229.703C131.582 229.74 131.884 229.664 132.132 229.492C132.379 229.319 132.554 229.061 132.623 228.767C132.643 228.469 132.545 228.174 132.352 227.947C132.158 227.719 131.883 227.576 131.586 227.547" fill="white"/>
</g>
<g opacity="0.6">
<path d="M126.09 232.076L127.102 230.052L151.516 241.948C151.516 241.948 152.442 242.96 151.946 243.719L126.09 232.076Z" fill="white"/>
</g>
<path d="M142.242 230.249C142.182 230.371 141.524 230.148 140.724 230.275C139.925 230.401 139.348 230.781 139.252 230.68C139.156 230.578 139.677 229.931 140.654 229.794C141.63 229.657 142.323 230.143 142.242 230.249Z" fill="#263238"/>
<path d="M144.454 232.592C144.428 232.724 143.781 232.693 143.113 233.038C142.445 233.382 142.065 233.888 141.944 233.827C141.822 233.766 142.06 233.012 142.9 232.602C143.74 232.193 144.504 232.471 144.454 232.592Z" fill="#263238"/>
<path d="M144.534 236.529C144.408 236.529 144.534 235.795 145.146 235.248C145.759 234.702 146.497 234.697 146.502 234.823C146.507 234.95 145.996 235.157 145.49 235.613C144.984 236.068 144.666 236.574 144.534 236.529Z" fill="#263238"/>
<path d="M139.954 112.179L142.034 118.54L130.695 119.425L129.374 116.02L139.954 112.179Z" fill="#FFBE9D"/>
<path d="M172.151 120.523C172.369 120.959 172.936 121.029 173.371 121.257C173.776 121.489 174.108 121.83 174.329 122.242C174.55 122.653 174.651 123.119 174.621 123.585C174.548 124.517 174.24 125.415 173.725 126.196C173.567 126.513 173.336 126.788 173.052 127C172.908 127.1 172.737 127.154 172.561 127.154C172.386 127.154 172.215 127.1 172.07 127C171.736 126.722 171.777 126.206 171.848 125.776C172.116 124.162 171.767 122.122 172.146 120.529" fill="#FFBE9D"/>
<path d="M96.7378 40.7725C96.6417 40.0629 96.815 39.3431 97.2233 38.7549C97.6317 38.1667 98.2456 37.7528 98.944 37.5948L111.462 29.6304C116.234 28.5577 122.245 36.5272 123.1 41.3342C123.965 46.6176 124.304 51.9736 124.112 57.3238C123.768 65.5513 118.374 66.4318 118.374 66.4318L122.422 93.7912L102.916 81.7636L96.7378 40.7725Z" fill="#FFBE9D"/>
<path d="M120.499 48.16C120.532 48.4291 120.46 48.7006 120.296 48.9169C120.133 49.1332 119.891 49.2774 119.623 49.3187C119.36 49.3675 119.088 49.3097 118.866 49.1579C118.645 49.0061 118.494 48.7727 118.444 48.5091C118.411 48.2401 118.484 47.9686 118.647 47.7522C118.811 47.5359 119.052 47.3918 119.32 47.3504C119.584 47.3016 119.856 47.3595 120.077 47.5113C120.298 47.6631 120.45 47.8964 120.499 48.16Z" fill="#263238"/>
<path d="M122.108 45.205C122.007 45.3163 121.177 45.3011 120.129 45.711C119.082 46.1208 118.389 46.6673 118.257 46.6369C118.126 46.6066 118.257 46.4598 118.576 46.2068C119.015 45.8477 119.514 45.567 120.048 45.377C120.559 45.1806 121.101 45.0794 121.647 45.0785C122.012 45.0683 122.158 45.1544 122.108 45.205Z" fill="#263238"/>
<path d="M110.137 48.6615C110.169 48.931 110.095 49.2025 109.931 49.4187C109.766 49.6349 109.525 49.7788 109.256 49.8202C108.993 49.8675 108.722 49.8089 108.502 49.6573C108.283 49.5056 108.131 49.2732 108.082 49.0106C108.048 48.7413 108.12 48.4691 108.283 48.2525C108.447 48.0358 108.689 47.892 108.958 47.8519C109.221 47.8031 109.494 47.8609 109.715 48.0127C109.936 48.1645 110.087 48.3978 110.137 48.6615Z" fill="#263238"/>
<path d="M111.224 47.3251C111.072 47.3858 110.293 46.9203 109.083 46.7432C107.874 46.5661 106.928 46.7432 106.811 46.6622C106.695 46.5813 106.928 46.4953 107.317 46.3991C107.924 46.2786 108.548 46.2666 109.159 46.3637C109.751 46.4448 110.323 46.6371 110.844 46.9304C111.203 47.1379 111.32 47.2998 111.224 47.3251Z" fill="#263238"/>
<path d="M116.162 54.2067C116.727 53.9511 117.322 53.7691 117.933 53.6652C118.211 53.6045 118.475 53.5185 118.5 53.3161C118.491 53.0196 118.39 52.7332 118.211 52.4964C117.874 51.8217 117.51 51.1319 117.118 50.4268C115.6 47.4769 114.447 45.0379 114.588 44.9772C114.73 44.9165 116.046 47.2593 117.574 50.2093L118.631 52.294C118.851 52.6174 118.95 53.0081 118.91 53.3971C118.88 53.5021 118.826 53.599 118.754 53.6805C118.681 53.762 118.591 53.826 118.49 53.8676C118.337 53.9276 118.177 53.9684 118.014 53.9891C117.408 54.1386 116.786 54.2117 116.162 54.2067Z" fill="#263238"/>
<path d="M118.369 66.4521C114.589 67.0109 110.729 66.4845 107.237 64.9341C107.237 64.9341 110.561 70.6215 118.556 68.9214L118.369 66.4521Z" fill="#EB996E"/>
<path d="M116.289 56.9345C116.017 56.58 115.669 56.291 115.271 56.0888C114.872 55.8865 114.433 55.7761 113.987 55.7656C113.729 55.771 113.478 55.8547 113.268 56.0056C113.059 56.1565 112.9 56.3675 112.813 56.6106C112.725 56.9248 112.715 57.2554 112.783 57.5743C112.851 57.8932 112.995 58.191 113.202 58.4424C113.406 58.7083 113.684 58.9089 114 59.0195C114.317 59.1301 114.658 59.1458 114.984 59.0647C115.511 58.847 115.961 58.4748 116.274 57.9971C116.387 57.8754 116.469 57.7277 116.512 57.567C116.53 57.4656 116.526 57.3614 116.5 57.2617C116.474 57.162 116.426 57.0693 116.36 56.9901" fill="#EB996E"/>
<path d="M112.97 55.3606C113.152 55.3252 113.294 56.5345 114.427 57.2733C115.561 58.0121 116.836 57.7287 116.866 57.8957C116.866 57.9716 116.608 58.1639 116.061 58.2448C115.355 58.3369 114.638 58.1775 114.037 57.7945C113.461 57.4237 113.05 56.843 112.894 56.1753C112.788 55.6541 112.889 55.3606 112.97 55.3606Z" fill="#263238"/>
<path d="M111.579 42.3513C111.472 42.6549 110.349 42.5284 109.049 42.7105C107.748 42.8927 106.676 43.2621 106.493 42.9939C106.412 42.8623 106.595 42.5739 106.999 42.2703C107.565 41.8967 108.209 41.6569 108.882 41.5692C109.554 41.4815 110.238 41.5483 110.88 41.7643C111.376 41.992 111.624 42.2045 111.579 42.3513Z" fill="#263238"/>
<path d="M122.168 42.7109C121.951 42.9892 120.969 42.8374 119.82 42.9537C118.672 43.0701 117.721 43.3636 117.468 43.1207C117.351 43.0043 117.468 42.7311 117.877 42.4477C118.434 42.0907 119.07 41.8738 119.729 41.8157C120.388 41.7575 121.051 41.8598 121.662 42.1138C122.097 42.3313 122.259 42.5742 122.168 42.7109Z" fill="#263238"/>
<path d="M91.2477 61.8019C91.4501 58.1334 92.037 46.3891 94.4051 39.9832C96.7732 33.5772 100.108 30.7082 103.538 29.3572C104.834 28.8035 106.251 28.5937 107.651 28.7479C109.052 28.9022 110.389 29.4153 111.533 30.2376C113.294 31.4824 114.316 35.581 114.316 35.581C114.316 35.581 105.992 38.455 103.69 43.677C101.024 49.6478 100.548 52.5522 100.548 52.5522L99.8294 55.7349C99.8294 55.7349 101.393 69.569 102.096 72.4329L90.8125 83.3423C91.1819 79.7396 91.0453 65.4653 91.2477 61.8019Z" fill="#263238"/>
<path d="M114.563 35.6013C114.563 35.6013 119.385 34.5134 121.819 39.8214C122.922 42.2249 124.015 49.5011 124.015 49.5011C124.015 49.5011 124.425 43.5556 123.787 40.3223C123.15 37.089 121.05 33.1422 118.287 31.1435C115.524 29.1448 113.43 28.3908 109.108 29.1498C110.41 29.4752 111.591 30.165 112.514 31.1384C113.167 31.9025 113.49 32.5805 114.563 35.6013Z" fill="#263238"/>
<path d="M100.638 52.947C100.345 51.1659 98.2601 50.1944 96.813 51.2722C96.0186 51.8591 95.4822 52.9217 95.7757 54.8142C96.565 59.8742 101.458 58.0222 101.443 57.8805C101.428 57.7389 100.982 55.0267 100.638 52.947Z" fill="#FFBE9D"/>
<path d="M99.6064 56.2059C99.6064 56.2059 99.5305 56.2818 99.3938 56.3729C99.1969 56.4926 98.9621 56.5341 98.736 56.4892C98.1744 56.3779 97.5975 55.5987 97.4306 54.698C97.3496 54.2679 97.3669 53.8251 97.4812 53.4026C97.5019 53.2374 97.5631 53.0798 97.6593 52.9439C97.7555 52.808 97.8838 52.6979 98.0327 52.6234C98.13 52.5825 98.2384 52.5763 98.3397 52.6058C98.441 52.6353 98.5291 52.6986 98.5893 52.7853C98.6804 52.9169 98.6601 53.0181 98.6905 53.0231C98.7209 53.0282 98.7866 52.9219 98.6905 52.7195C98.6433 52.5992 98.5556 52.499 98.4426 52.4362C98.287 52.3538 98.1054 52.3356 97.9366 52.3856C97.7356 52.4593 97.5568 52.583 97.4169 52.745C97.277 52.907 97.1807 53.102 97.1371 53.3116C96.9918 53.78 96.964 54.277 97.0561 54.7587C97.2433 55.7707 97.9113 56.641 98.6753 56.7372C98.8162 56.7551 98.9594 56.7412 99.0942 56.6965C99.2291 56.6519 99.3522 56.5776 99.4546 56.4791C99.6165 56.3273 99.6266 56.2109 99.6064 56.2059Z" fill="#EB996E"/>
<path d="M105.526 28.8006C105.526 28.8411 106.224 28.7399 107.337 28.7602C107.989 28.7729 108.634 28.8873 109.25 29.0992C109.998 29.3759 110.686 29.7952 111.274 30.3338C112.363 31.3071 113.212 32.5195 113.753 33.8758C114.168 34.8878 114.259 35.6063 114.32 35.5962C114.313 35.434 114.289 35.2729 114.249 35.1155C113.846 33.2198 112.846 31.5032 111.395 30.2174C110.789 29.6552 110.074 29.2215 109.296 28.9423C108.663 28.7307 107.999 28.6263 107.332 28.6337C106.886 28.6335 106.439 28.6622 105.996 28.7197C105.838 28.7336 105.68 28.7607 105.526 28.8006Z" fill="#455A64"/>
<path d="M96.3732 57.1417C96.3751 57.1131 96.3751 57.0843 96.3732 57.0557L96.3024 56.828C96.267 56.7217 96.2316 56.5952 96.186 56.4535L96.0494 55.9475C95.7736 54.8414 95.6577 53.7014 95.7053 52.5624C95.7697 50.8728 96.185 49.2151 96.9248 47.6947C97.8704 45.8539 99.2196 44.2505 100.872 43.0041C101.719 42.3498 102.607 41.7482 103.528 41.2027C104.419 40.6663 105.314 40.2211 106.144 39.7252C107.595 38.8398 108.976 37.8434 110.273 36.7448C111.381 35.8087 112.236 35.0042 112.803 34.4375C113.091 34.1541 113.309 33.9315 113.456 33.7746L113.623 33.5975C113.658 33.557 113.678 33.5368 113.673 33.5317L113.613 33.5823L113.431 33.7493L112.763 34.4021C112.171 34.9536 111.305 35.743 110.187 36.6588C108.885 37.7392 107.505 38.7218 106.058 39.5987C105.238 40.1047 104.333 40.5247 103.437 41.0661C102.506 41.6113 101.612 42.2164 100.76 42.8776C99.0805 44.1359 97.7098 45.7609 96.7527 47.6289C96.0105 49.1705 95.6035 50.852 95.5586 52.5624C95.5238 53.711 95.6585 54.8585 95.9583 55.9678L96.1101 56.4738C96.1658 56.6155 96.2113 56.7369 96.2467 56.8432L96.3378 57.0709C96.3581 57.1164 96.3682 57.1417 96.3732 57.1417Z" fill="#455A64"/>
<path d="M94.9811 55.3607C94.9811 55.3607 94.9811 55.3303 94.9811 55.2797L94.9508 55.0368C94.9508 54.8243 94.8698 54.5308 94.8293 54.1109C94.7101 52.9711 94.6915 51.8232 94.7737 50.6802C94.8973 48.9874 95.2374 47.3175 95.7857 45.7113C96.4706 43.7494 97.4704 41.9122 98.7458 40.2718C100.059 38.6505 101.592 37.22 103.3 36.0214C104.818 34.8879 106.336 33.9974 107.545 33.1979C108.754 32.3984 109.761 31.7861 110.434 31.3206C110.773 31.098 111.026 30.9108 111.198 30.7843L111.396 30.6426L111.462 30.5869C111.462 30.5869 111.431 30.5869 111.386 30.6274L111.178 30.7539L110.394 31.2599C109.716 31.7001 108.714 32.3225 107.474 33.0815C106.235 33.8405 104.757 34.7513 103.199 35.8847C101.487 37.0847 99.9538 38.5208 98.6446 40.1503C97.3438 41.8065 96.3264 43.6668 95.6339 45.6556C95.0791 47.2775 94.7389 48.965 94.6219 50.6751C94.5515 51.8231 94.5905 52.9753 94.7383 54.1159C94.7889 54.5207 94.8597 54.8294 94.8951 55.0419C94.8951 55.138 94.9305 55.219 94.9457 55.2797C94.9609 55.3404 94.9761 55.3607 94.9811 55.3607Z" fill="#455A64"/>
<path d="M121.997 74.8467C121.997 74.8467 128.519 77.4981 129.769 80.8934C131.019 84.2886 140.501 112.326 140.501 112.326L129.495 116.546L124.476 93.4725L121.997 74.8467Z" fill="#146070"/>
<path d="M88.2769 154.466C88.2769 154.466 155.575 151.374 159.8 152.487C164.025 153.601 166.55 155.731 167.39 160.796C168.23 165.861 181.204 232.967 181.204 232.967L169.404 236.438C169.404 236.438 152.848 198.64 152.144 192.315C151.441 185.99 149.108 173.026 149.108 173.026C149.108 173.026 123.525 173.446 104.686 173.026C85.8481 172.606 88.3781 155.169 88.3781 155.169L88.2769 154.466Z" fill="#FFBE9D"/>
<path d="M169.257 236.741L169.171 236.539C168.493 234.99 152.595 198.634 151.896 192.34C151.249 186.536 149.21 174.984 148.906 173.279C146.376 173.319 122.407 173.673 104.692 173.279C98.8373 173.147 94.43 171.371 91.5812 168.006C87.2701 162.911 88.0392 155.776 88.1354 155.174L87.9785 154.228H88.2619C91.0145 154.101 155.656 151.146 159.866 152.259C164.592 153.509 166.844 155.973 167.643 160.765C168.473 165.765 181.305 232.263 181.457 232.936L181.497 233.159L169.257 236.741ZM149.326 172.768L149.366 172.98C149.392 173.107 151.704 186.025 152.402 192.284C153.065 198.26 168.235 233.123 169.551 236.129L180.921 232.789C180.091 228.493 167.957 165.694 167.147 160.836C166.388 156.282 164.243 153.924 159.739 152.74C155.752 151.683 93.3472 154.496 88.5756 154.714L88.6515 155.174V155.209C88.6515 155.285 87.6395 162.567 91.981 167.687C94.7336 170.936 99.0144 172.646 104.712 172.778C123.328 173.193 148.865 172.778 149.124 172.778L149.326 172.768Z" fill="#EB996E"/>
<path d="M92.8206 118.17L94.5157 128.654C94.5157 128.654 87.1534 142.605 86.3236 154.597C85.9289 160.295 89.1977 171.963 89.1977 171.963C89.1977 171.963 115.125 174.812 129.111 174.447L144.033 173.795L146.664 150.483L129.915 148.065L130.168 116.298C130.168 116.298 133.204 107.934 133.437 105.459C133.974 100.238 133.751 94.9549 128.534 88.1846L121.997 74.8464L119.816 73.8344L120.853 89.991L102.06 72.1343L92.5423 75.5498L89.8454 88.2757L92.8206 118.17Z" fill="#116273"/>
<g opacity="0.3">
<path d="M125.397 151.925C124.178 152.138 115.378 152.264 114.159 152.477C113.952 152.54 113.733 152.561 113.518 152.537C113.302 152.514 113.093 152.447 112.904 152.34C112.752 152.196 112.646 152.009 112.601 151.805C112.556 151.6 112.573 151.386 112.651 151.191C112.812 150.8 113.066 150.453 113.39 150.179C115.52 148.155 118.288 146.987 120.98 145.843C121.84 145.484 122.771 145.114 123.672 145.337C124.113 145.483 124.513 145.734 124.836 146.069C125.158 146.404 125.394 146.813 125.524 147.26C125.78 148.152 125.886 149.081 125.837 150.007" fill="#333333"/>
</g>
<g opacity="0.3">
<path d="M93.5138 125.482C96.6561 124.748 98.6295 121.651 99.9046 118.686C101.18 115.721 102.232 112.447 104.732 110.403C106.564 108.885 109.018 108.217 110.601 106.456C111.354 105.594 111.853 104.539 112.044 103.41C112.234 102.282 112.108 101.122 111.679 100.06C111.224 98.9775 110.308 97.9554 109.149 97.8946C107.783 97.8238 106.72 99.0078 105.886 100.096C102.067 105.098 98.4659 110.26 95.0824 115.579C93.2659 118.438 91.4544 121.909 92.7194 125.052" fill="#333333"/>
</g>
<path d="M93.5338 77.2197C93.5338 77.2197 88.2158 78.9098 86.293 82.2443C84.3702 85.5789 81.1824 101.771 80.4133 106.133C79.6441 110.494 75.925 128.442 80.4133 131.266C84.9015 134.089 90.8014 129.748 92.3397 127.162C93.8779 124.576 100.157 111.132 100.157 111.132L94.5155 106.391C94.5155 106.391 95.5275 93.5686 95.1581 90.8716C94.7887 88.1746 93.5338 77.2197 93.5338 77.2197Z" fill="#FFBE9D"/>
<path d="M76.8564 110.51L89.1978 111.314L94.8346 104.696L96.3931 94.272L95.9782 74.3306C95.9782 74.3306 84.9626 77.0174 82.5793 85.3917C80.8134 91.5801 76.8564 110.51 76.8564 110.51Z" fill="#146070"/>
<path d="M98.6955 86.9249C97.9871 86.8288 97.0814 87.6637 97.6835 89.6775C98.1895 91.3575 99.1408 92.9918 99.07 93.9279C98.9991 94.864 98.6348 96.8121 98.6348 97.8241C98.5907 98.8135 98.4945 99.7999 98.3464 100.779L89.9468 110.899L97.218 117.315L102.971 108.278C102.971 108.278 104.707 108.567 105.714 107.413L107.232 105.677C107.232 105.677 111.128 104.235 110.334 102.135C110.334 102.135 111.487 101.037 110.44 99.2764C110.44 99.2764 110.986 97.4446 110.192 96.3669C110.192 96.3669 110.121 93.9128 109.468 93.4776C108.816 93.0424 102.065 92.9716 102.065 92.9716C101.698 91.8496 101.274 90.7468 100.795 89.6674C100.057 88.448 99.6822 87.0565 98.6955 86.9249Z" fill="#FFBE9D"/>
<path d="M101.569 96.878C101.569 96.9033 101.392 96.8071 101.235 96.5693C101.031 96.2488 100.942 95.8684 100.982 95.4905C101.023 95.1125 101.19 94.7596 101.458 94.4897C101.66 94.2923 101.832 94.2316 101.848 94.2569C101.547 94.6212 101.34 95.0539 101.245 95.5168C101.246 95.9896 101.357 96.4557 101.569 96.878Z" fill="#EB996E"/>
<path d="M109.909 96.1851C108.891 96.4817 107.844 96.6666 106.787 96.7366C105.738 96.8891 104.676 96.9247 103.619 96.8429C104.659 96.6618 105.708 96.5385 106.761 96.4735C107.804 96.3172 108.855 96.221 109.909 96.1851Z" fill="#EB996E"/>
<path d="M110.505 99.0789C109.667 99.4195 108.781 99.631 107.879 99.7063C106.99 99.871 106.081 99.9017 105.182 99.7974C105.182 99.7215 106.376 99.6456 107.844 99.4432C109.311 99.2408 110.49 99.0081 110.505 99.0789Z" fill="#EB996E"/>
<path d="M110.358 102.049C109.049 102.451 107.673 102.586 106.31 102.449C106.976 102.303 107.653 102.217 108.334 102.191C109.003 102.085 109.681 102.037 110.358 102.049Z" fill="#EB996E"/>
<path d="M103.983 102.96C103.983 102.991 103.841 102.96 103.669 102.864C103.442 102.709 103.283 102.474 103.224 102.206C103.159 101.941 103.195 101.662 103.325 101.422C103.426 101.245 103.538 101.174 103.563 101.194C103.588 101.215 103.355 101.634 103.477 102.146C103.598 102.657 104.018 102.894 103.983 102.96Z" fill="#EB996E"/>
<path d="M102.323 100.551C102.323 100.577 102.156 100.491 101.999 100.273C101.798 99.9856 101.682 99.647 101.665 99.2965C101.645 98.9451 101.722 98.5947 101.888 98.2845C102.025 98.0517 102.156 97.9505 102.182 97.9708C102.027 98.3893 101.941 98.8302 101.929 99.2763C101.993 99.7192 102.126 100.149 102.323 100.551Z" fill="#EB996E"/>
<path d="M108.284 105.242C107.917 105.436 107.514 105.553 107.1 105.586C106.699 105.701 106.278 105.731 105.865 105.672C106.231 105.475 106.635 105.358 107.049 105.328C107.45 105.21 107.871 105.18 108.284 105.242Z" fill="#EB996E"/>
<path d="M105.031 93.017C105.031 93.0929 104.019 93.0929 102.739 93.2194C101.459 93.3459 100.472 93.5432 100.452 93.4724C101.169 93.1685 101.935 92.9971 102.713 92.9664C103.483 92.8459 104.268 92.863 105.031 93.017Z" fill="#EB996E"/>
<path d="M127.248 117.34H169.074C169.813 117.34 170.52 117.634 171.042 118.155C171.564 118.677 171.857 119.385 171.857 120.123V149.77H124.476V120.118C124.477 119.383 124.769 118.678 125.289 118.157C125.808 117.637 126.513 117.343 127.248 117.34Z" fill="#E0E0E0"/>
<path d="M171.858 151.926H116.198C116.198 151.36 116.423 150.816 116.823 150.416C117.224 150.015 117.767 149.791 118.333 149.791H171.858V151.926Z" fill="#E0E0E0"/>
<path d="M170.107 119.425H125.913V149.79H170.107V119.425Z" fill="white"/>
<path d="M170.103 149.77C170.103 149.77 170.103 149.578 170.103 149.213C170.103 148.849 170.103 148.302 170.103 147.604C170.103 146.192 170.103 144.128 170.072 141.487C170.072 136.204 170.042 128.629 170.017 119.405L170.123 119.511H125.934L126.065 119.38C126.065 130.223 126.065 140.52 126.065 149.74L125.949 149.618L157.782 149.679L166.89 149.714H169.313H169.936H170.153H169.951H169.339H166.94L157.878 149.745L125.964 149.805H125.843V149.77C125.843 140.545 125.843 130.248 125.843 119.41V119.278H125.974H170.163H170.27V119.41C170.27 128.66 170.229 136.26 170.214 141.557C170.214 144.189 170.214 146.243 170.214 147.629C170.214 148.323 170.214 148.854 170.214 149.218C170.214 149.583 170.103 149.77 170.103 149.77Z" fill="#263238"/>
<path d="M171.625 149.77C171.625 149.846 159.678 149.901 144.943 149.901C130.209 149.901 118.257 149.846 118.257 149.77C118.257 149.694 130.203 149.638 144.943 149.638C159.683 149.638 171.625 149.719 171.625 149.77Z" fill="#263238"/>
<path d="M148.005 146.223C154.419 146.223 159.618 141.024 159.618 134.61C159.618 128.197 154.419 122.998 148.005 122.998C141.592 122.998 136.393 128.197 136.393 134.61C136.393 141.024 141.592 146.223 148.005 146.223Z" fill="#157C92"/>
<path d="M140.79 134.893L143.249 132.566L146.644 135.693L153.328 129.403L155.757 131.701L146.609 140.384L140.79 134.893Z" fill="white"/>
<path d="M98.3564 100.779C98.412 100.825 94.9257 105.035 90.569 110.176C86.2124 115.317 82.6349 119.446 82.5793 119.41C82.5236 119.375 86.01 115.16 90.3666 110.014C94.7233 104.868 98.3007 100.734 98.3564 100.779Z" fill="#EB996E"/>
<path d="M97.7548 94.2568C97.6411 95.7248 97.44 97.1846 97.1527 98.6287C96.9534 100.088 96.6662 101.535 96.2925 102.96C96.406 101.49 96.6071 100.029 96.8946 98.5831C97.0971 97.1256 97.3843 95.681 97.7548 94.2568Z" fill="#263238"/>
<path d="M130.168 116.298C130.187 116.195 130.214 116.093 130.249 115.995L130.523 115.145C130.766 114.411 131.125 113.348 131.535 112.028C132.024 110.485 132.433 108.917 132.759 107.332C133.167 105.396 133.349 103.42 133.301 101.442C133.118 97.8414 132.106 94.3314 130.346 91.1854C129.823 90.2274 129.248 89.2984 128.625 88.4024C128.413 88.0836 128.23 87.8458 128.119 87.6788C128.054 87.5957 127.998 87.5058 127.952 87.4106C128.029 87.4806 128.099 87.5586 128.16 87.6434C128.291 87.8053 128.489 88.033 128.716 88.3467C129.374 89.2238 129.976 90.1415 130.518 91.0943C131.323 92.5129 131.986 94.0079 132.496 95.5572C133.131 97.4552 133.497 99.4325 133.584 101.432C133.635 103.431 133.445 105.429 133.017 107.382C132.677 108.972 132.248 110.541 131.732 112.083C131.297 113.399 130.912 114.456 130.639 115.18C130.507 115.517 130.401 115.796 130.32 116.015C130.281 116.115 130.23 116.21 130.168 116.298Z" fill="#263238"/>
<path d="M119.416 100.541C119.436 100.777 119.436 101.014 119.416 101.249C119.415 101.527 119.395 101.804 119.355 102.079C119.319 102.446 119.263 102.811 119.188 103.172C119.107 103.61 118.999 104.043 118.864 104.468C118.722 104.96 118.553 105.445 118.358 105.92C117.891 106.991 117.311 108.008 116.628 108.956C115.927 109.901 115.125 110.767 114.234 111.536C113.844 111.87 113.435 112.181 113.01 112.467C112.646 112.726 112.265 112.961 111.871 113.171C111.544 113.36 111.206 113.529 110.859 113.677C110.611 113.798 110.354 113.901 110.09 113.985C109.871 114.076 109.644 114.145 109.412 114.193C109.387 114.137 110.358 113.839 111.755 113.024C112.137 112.805 112.507 112.565 112.863 112.306C113.258 112.042 113.637 111.708 114.052 111.369C115.796 109.835 117.178 107.935 118.1 105.803C118.293 105.34 118.462 104.867 118.606 104.387C118.746 103.968 118.863 103.543 118.955 103.111C119.375 101.553 119.365 100.541 119.416 100.541Z" fill="#263238"/>
<path d="M133.327 105.141C133.298 105.113 133.274 105.081 133.256 105.045L133.079 104.736C132.912 104.458 132.684 104.078 132.396 103.608C132.107 103.137 131.657 102.56 131.186 101.903C130.716 101.245 130.119 100.526 129.486 99.7218C126.885 96.5441 123.045 92.3696 118.642 87.9118C114.24 83.4539 110.106 79.5678 107.075 76.7798L105.011 74.9329C104.404 74.3965 103.877 73.9209 103.437 73.5566L102.425 72.7014L102.167 72.4737C102.134 72.4501 102.105 72.421 102.081 72.3877C102.117 72.4055 102.151 72.4276 102.182 72.4535C102.258 72.5091 102.349 72.5749 102.455 72.6609L103.498 73.4756L105.102 74.8216C105.724 75.3579 106.423 75.9702 107.192 76.6431C110.263 79.3755 114.407 83.2566 118.83 87.7094C123.252 92.1622 127.062 96.3721 129.628 99.5852C130.255 100.4 130.822 101.134 131.308 101.791L132.482 103.532C132.75 104.038 132.988 104.402 133.124 104.691L133.286 104.994C133.32 105.092 133.333 105.141 133.327 105.141Z" fill="#263238"/>
<path d="M123.5 128.549C123.407 128.581 123.31 128.6 123.211 128.604L122.386 128.721C121.668 128.817 120.621 128.928 119.35 129.045C116.765 129.277 113.177 129.464 109.23 129.419C105.284 129.373 101.681 129.085 99.1104 128.792C97.8201 128.645 96.7778 128.503 96.0744 128.387L95.2497 128.255C95.1529 128.245 95.0578 128.222 94.9663 128.189C95.0638 128.177 95.1623 128.177 95.2598 128.189L96.0896 128.275C96.8081 128.361 97.8556 128.473 99.1256 128.594C101.701 128.842 105.279 129.1 109.246 129.146C113.213 129.191 116.78 129.029 119.366 128.847C120.656 128.756 121.703 128.675 122.402 128.609L123.231 128.544C123.321 128.536 123.411 128.538 123.5 128.549Z" fill="#263238"/>
<path d="M145.415 117.305C145.415 117.305 153.703 114.072 154.488 113.814C155.272 113.556 162.518 112.989 162.518 112.989L171.859 116.344C171.859 116.344 171.945 118.262 169.764 118.004C167.841 117.679 165.945 117.212 164.092 116.607L162.781 117.386L145.415 117.305Z" fill="#FFBE9D"/>
<path d="M171.407 118.535C171.625 118.975 172.191 119.041 172.626 119.274C173.029 119.509 173.359 119.851 173.579 120.261C173.8 120.672 173.903 121.136 173.876 121.601C173.803 122.532 173.495 123.428 172.981 124.207C172.823 124.522 172.594 124.795 172.313 125.007C172.169 125.107 171.997 125.16 171.822 125.16C171.646 125.16 171.475 125.107 171.331 125.007C171.193 124.838 171.1 124.637 171.061 124.423C171.022 124.209 171.038 123.988 171.108 123.782C171.377 122.168 171.027 120.124 171.407 118.53" fill="#FFBE9D"/>
<path d="M180.799 230.462L181.082 231.251C181.082 231.251 196.464 231.853 197.517 234.353L170.76 243.755L167.992 234.722C172.622 235.168 176.857 233.913 180.799 230.462Z" fill="#455A64"/>
<g opacity="0.6">
<path d="M171.707 236.615C171.476 236.784 171.316 237.033 171.258 237.313C171.199 237.593 171.245 237.885 171.388 238.133C171.549 238.373 171.797 238.542 172.08 238.604C172.364 238.665 172.66 238.614 172.906 238.462C173.15 238.283 173.319 238.019 173.38 237.723C173.44 237.427 173.389 237.118 173.235 236.858C173.042 236.63 172.768 236.485 172.471 236.454C172.174 236.423 171.877 236.508 171.641 236.691" fill="white"/>
</g>
<g opacity="0.6">
<path d="M170.76 243.755L170.097 241.584L195.984 233.367C195.984 233.367 197.356 233.468 197.502 234.379L170.76 243.755Z" fill="white"/>
</g>
<path d="M181.204 231.297C181.244 231.428 180.612 231.717 180.116 232.364C179.62 233.012 179.473 233.68 179.337 233.67C179.2 233.66 179.124 232.835 179.736 232.066C180.349 231.297 181.189 231.165 181.204 231.297Z" fill="#263238"/>
<path d="M184.417 231.469C184.493 231.585 184.002 232.005 183.754 232.714C183.506 233.422 183.582 234.055 183.451 234.095C183.319 234.136 182.975 233.422 183.304 232.547C183.633 231.671 184.371 231.347 184.417 231.469Z" fill="#263238"/>
<path d="M187.19 234.272C187.084 234.342 186.684 233.766 186.755 232.921C186.826 232.076 187.352 231.59 187.443 231.676C187.534 231.762 187.297 232.283 187.236 232.966C187.175 233.649 187.317 234.211 187.19 234.272Z" fill="#263238"/>
</svg>
