<svg width="150" height="150" viewBox="0 0 150 150" fill="none" xmlns="http://www.w3.org/2000/svg">
<path d="M21.875 128.125C27.0625 133.313 35.4375 133.313 40.625 128.125L121.875 46.875C127.063 41.6875 127.063 33.3125 121.875 28.125C116.688 22.9375 108.313 22.9375 103.125 28.125L21.875 109.375C16.6875 114.563 16.6875 122.938 21.875 128.125Z" stroke="white" stroke-width="5" stroke-linecap="round" stroke-linejoin="round"/>
<path d="M112.562 56.1875L93.8125 37.4375" stroke="white" stroke-width="5" stroke-linecap="round" stroke-linejoin="round"/>
<path d="M53.125 15.25L62.5 12.5L59.75 21.875L62.5 31.25L53.125 28.5L43.75 31.25L46.5 21.875L43.75 12.5L53.125 15.25Z" stroke="white" stroke-width="3" stroke-linecap="round" stroke-linejoin="round"/>
<path d="M28.125 52.75L37.5 50L34.75 59.375L37.5 68.75L28.125 66L18.75 68.75L21.5 59.375L18.75 50L28.125 52.75Z" stroke="white" stroke-width="3" stroke-linecap="round" stroke-linejoin="round"/>
<path d="M121.875 84L131.25 81.25L128.5 90.625L131.25 100L121.875 97.25L112.5 100L115.25 90.625L112.5 81.25L121.875 84Z" stroke="white" stroke-width="3" stroke-linecap="round" stroke-linejoin="round"/>
</svg>
