<svg width="236" height="79" viewBox="0 0 236 79" fill="none" xmlns="http://www.w3.org/2000/svg">
<path fill-rule="evenodd" clip-rule="evenodd" d="M0 44.1458C0 42.7257 1.14266 41.5896 2.53017 41.5896C3.91769 41.5896 5.06035 42.7257 5.06035 44.1458C5.06035 45.566 3.91769 46.7021 2.53017 46.7021C1.14266 46.7021 0 45.566 0 44.1458Z" fill="#BED92B"/>
<path fill-rule="evenodd" clip-rule="evenodd" d="M0 20.531C0 19.1108 1.14266 17.9747 2.53017 17.9747C3.91769 17.9747 5.06035 19.1108 5.06035 20.531C5.06035 21.9511 3.91769 23.0872 2.53017 23.0872C1.14266 23.0872 0 21.9511 0 20.531Z" fill="#BED92B"/>
<path fill-rule="evenodd" clip-rule="evenodd" d="M4.44824 31.4052C4.44824 29.6198 5.87657 28.1997 7.59056 28.1997C9.34536 28.1997 10.7737 29.6198 10.7737 31.4052C10.7737 33.1905 9.34536 34.6106 7.59056 34.6106C5.87657 34.57 4.44824 33.1499 4.44824 31.4052Z" fill="#AFA0C4"/>
<path fill-rule="evenodd" clip-rule="evenodd" d="M10.7734 20.2064C10.7734 17.9342 12.6099 16.0677 14.8952 16.0677C17.1805 16.0677 19.0169 17.9342 19.0169 20.2064C19.0169 22.4786 17.1805 24.3451 14.8952 24.3451C12.6099 24.3857 10.7734 22.5192 10.7734 20.2064Z" fill="#BED92B"/>
<path fill-rule="evenodd" clip-rule="evenodd" d="M10.7734 44.4705C10.7734 42.1982 12.6099 40.3318 14.8952 40.3318C17.1805 40.3318 19.0169 42.1982 19.0169 44.4705C19.0169 46.7427 17.1805 48.6091 14.8952 48.6091C12.6099 48.6497 10.7734 46.7832 10.7734 44.4705Z" fill="#BED92B"/>
<path fill-rule="evenodd" clip-rule="evenodd" d="M18.3643 31.0806C18.3643 28.4432 20.4863 26.2927 23.0981 26.2927C25.7099 26.2927 27.832 28.4432 27.832 31.0806C27.832 33.718 25.7099 35.8685 23.0981 35.8685C20.4863 35.8685 18.3643 33.718 18.3643 31.0806Z" fill="#AFA0C4"/>
<path fill-rule="evenodd" clip-rule="evenodd" d="M18.3643 55.3446C18.3643 52.7072 20.4863 50.5568 23.0981 50.5568C25.7099 50.5568 27.832 52.7072 27.832 55.3446C27.832 57.982 25.7099 60.1325 23.0981 60.1325C20.4863 60.1325 18.3643 57.982 18.3643 55.3446Z" fill="#AFA0C4"/>
<path fill-rule="evenodd" clip-rule="evenodd" d="M4.44824 55.02C4.44824 53.2347 5.87657 51.8146 7.59056 51.8146C9.34536 51.8146 10.7737 53.2347 10.7737 55.02C10.7737 56.8053 9.34536 58.2255 7.59056 58.2255C5.87657 58.2255 4.44824 56.7648 4.44824 55.02Z" fill="#AFA0C4"/>
<path d="M38.728 44.8762C38.728 41.9548 35.8714 39.6014 32.4026 39.6014C28.893 39.6014 26.0771 41.9548 26.0771 44.8762C26.0771 46.8238 27.179 48.4874 29.1787 49.7047C30.5662 50.5568 31.7904 51.3683 35.3 52.3826C35.3 52.3826 33.9125 51.4088 32.6882 50.151C36.0346 49.9887 38.728 47.7165 38.728 44.8762Z" fill="#15C0E4"/>
<path fill-rule="evenodd" clip-rule="evenodd" d="M41.4623 45.8093C43.9108 45.4442 46.4818 47.6758 45.2984 50.5972C43.9516 53.965 38.2384 53.0317 38.524 48.9742C38.6056 47.8381 39.0137 47.2295 39.5443 46.7426C39.9523 46.2962 40.5237 45.9716 41.4623 45.8093Z" fill="#AFA0C4"/>
<path fill-rule="evenodd" clip-rule="evenodd" d="M41.2994 53.6404C45.2171 53.2346 49.2164 56.1154 49.0532 60.741C49.0532 61.2685 48.9308 62.3235 48.237 62.7698C46.8903 63.703 43.7072 62.8509 42.0748 62.8509C40.3608 62.8509 37.2185 63.6624 35.9126 62.7698C35.2597 62.3235 35.1372 61.4308 35.0964 60.8628C34.8108 57.0487 37.9123 54.0055 41.2994 53.6404Z" fill="#AFA0C4"/>
<path fill-rule="evenodd" clip-rule="evenodd" d="M54.0726 34.002C56.5212 33.6368 59.0922 35.8684 57.9087 38.7899C56.562 42.1576 50.8487 41.2244 51.1344 37.1668C51.216 36.0307 51.6241 35.4221 52.1546 34.9352C52.5627 34.4889 53.1748 34.1237 54.0726 34.002Z" fill="#AFA0C4"/>
<path fill-rule="evenodd" clip-rule="evenodd" d="M53.9501 41.833C57.8677 41.4272 61.8671 44.3081 61.7038 48.9337C61.7038 49.4611 61.5814 50.5161 60.8876 50.9624C59.5409 51.8956 56.3578 51.0436 54.7254 51.0436C53.0114 51.0436 49.8691 51.8551 48.5632 50.9624C47.9103 50.5161 47.7879 49.6234 47.747 49.0554C47.4614 45.2007 50.5221 42.1982 53.9501 41.833Z" fill="#AFA0C4"/>
<path d="M60.8876 13.8361H53.9908C50.5628 13.8361 47.8286 16.5952 47.8286 19.9629V30.0662H47.7878C47.6246 33.7585 45.0944 36.8016 41.748 37.816V38.587C45.2576 39.6419 47.7878 42.8879 47.7878 46.7426C47.7878 50.5972 45.2168 53.8838 41.748 54.8982V56.3995C41.748 59.3615 43.8701 61.8772 46.7268 62.4046C46.9716 61.7149 47.2981 61.0656 47.7062 60.457C46.7676 59.0775 46.2371 57.4544 46.2371 55.6691C46.2371 50.9624 50.0323 47.1483 54.6846 47.1483C59.3368 47.1483 63.1321 50.9624 63.1321 55.6691C63.1321 57.4544 62.6016 59.0775 61.663 60.457C62.0711 61.1062 62.4383 61.796 62.6832 62.5264C65.9479 62.3641 68.5597 59.6861 68.5597 56.3995V55.4257C64.7237 54.6142 61.867 51.2059 61.867 47.0672C61.867 42.3605 65.6623 38.5464 70.3145 38.5464C71.9061 38.5464 73.3752 38.9927 74.6811 39.7636V26.9824V19.9629V13.8361H60.8876ZM54.6438 46.9455C49.9915 46.9455 46.1963 43.1314 46.1963 38.4247C46.1963 33.7179 49.9915 29.9039 54.6438 29.9039C59.296 29.9039 63.0913 33.7179 63.0913 38.4247C63.0913 43.1314 59.296 46.9455 54.6438 46.9455ZM72.1918 32.2572H65.0909V34.002H64.3156V29.701H65.0909V31.4457H72.1918V32.2572ZM72.1918 23.8176H68.3965V27.7939H72.1918V28.5649H64.3156V27.7939H67.6211V23.8176H64.3156V23.0466H72.1918V23.8176ZM72.1918 21.099H64.3156V16.6358H65.0909V20.3281H67.5395V16.6763H68.3149V20.3281H71.4164V16.6763H72.1918V21.099Z" fill="#AFA0C4"/>
<path fill-rule="evenodd" clip-rule="evenodd" d="M66.9681 45.5254C69.4167 45.1602 71.9877 47.3919 70.8042 50.3133C69.4575 53.681 63.7442 52.7478 64.0299 48.6903C64.1115 47.5136 64.5196 46.9455 65.0501 46.4586C65.4582 46.0123 66.0295 45.6471 66.9681 45.5254Z" fill="#AFA0C4"/>
<path fill-rule="evenodd" clip-rule="evenodd" d="M66.8456 53.3564C70.7632 52.9507 74.7626 55.8315 74.5993 60.4571C74.5993 60.9846 74.4769 62.0395 73.7831 62.4859C72.4364 63.4191 69.2533 62.567 67.6209 62.567C65.9069 62.567 62.7646 63.3785 61.4587 62.4859C60.8058 62.0395 60.6834 61.1469 60.6426 60.5788C60.3569 56.7242 63.4176 53.7216 66.8456 53.3564Z" fill="#AFA0C4"/>
<path d="M36.2388 19.8412C36.2388 16.9198 33.3821 14.5664 29.9133 14.5664C26.4037 14.5664 23.5879 16.9198 23.5879 19.8412C23.5879 21.7888 24.6897 23.4524 26.6894 24.6696C28.0769 25.5217 29.3012 26.3332 32.8108 27.3476C32.8108 27.3476 31.4233 26.3738 30.199 25.116C33.5454 24.9537 36.2388 22.6815 36.2388 19.8412Z" fill="#15C0E4"/>
<path fill-rule="evenodd" clip-rule="evenodd" d="M38.3607 21.3831C40.8093 21.0179 43.3803 23.2495 42.1968 26.171C40.8501 29.5387 35.1368 28.6055 35.4225 24.5479C35.5041 23.4118 35.9122 22.8032 36.4427 22.3163C36.8508 21.87 37.4221 21.5048 38.3607 21.3831Z" fill="#AFA0C4"/>
<path fill-rule="evenodd" clip-rule="evenodd" d="M38.2381 29.2141C42.1558 28.8083 46.1551 31.6892 45.9919 36.3148C45.9919 36.8422 45.8695 37.8972 45.1757 38.3435C43.829 39.2767 40.6459 38.4247 39.0135 38.4247C37.2995 38.4247 34.1572 39.2362 32.8513 38.3435C32.1984 37.8972 32.0759 37.0045 32.0351 36.4365C31.7495 32.5818 34.8102 29.5793 38.2381 29.2141Z" fill="#AFA0C4"/>
<path fill-rule="evenodd" clip-rule="evenodd" d="M84.6797 18.2994C86.312 18.2994 87.4139 18.34 87.9852 18.4617C88.7198 18.624 89.3319 18.9486 89.8216 19.4761C90.3113 20.0035 90.5562 20.6933 90.5562 21.5048C90.5562 22.1946 90.393 22.7627 90.0257 23.2496C89.6584 23.7365 89.2095 24.1016 88.5974 24.3451C87.9852 24.5885 86.7609 24.7103 84.9653 24.7103H82.476V18.2994H84.6797ZM82.476 38.7493V29.133H85.3734C87.3731 29.133 88.9238 29.0518 89.9849 28.7678C90.7602 28.5649 91.5356 28.1997 92.2702 27.5911C93.0048 26.9825 93.6577 26.2116 94.1474 25.1566C94.6371 24.1422 94.882 22.8438 94.882 21.3425C94.882 19.3949 94.4739 17.7719 93.6169 16.5546C92.7599 15.2968 91.6989 14.5259 90.4746 14.1607C89.6584 13.9173 87.9036 13.7955 85.2102 13.7955H78.1094V38.7087H82.476V38.7493Z" fill="#15C0E4"/>
<path fill-rule="evenodd" clip-rule="evenodd" d="M102.635 28.5243L105.533 19.5977L108.43 28.5243H102.635ZM107.777 13.8361H103.288L94.6367 38.7493H99.289L101.166 32.9876H109.859L111.695 38.7493H116.388L107.777 13.8361Z" fill="#15C0E4"/>
<path fill-rule="evenodd" clip-rule="evenodd" d="M124.264 38.7493V23.777L132.059 38.7493H136.711V13.8361H132.345V28.9706L124.468 13.8361H119.938V38.7493H124.264Z" fill="#15C0E4"/>
<path fill-rule="evenodd" clip-rule="evenodd" d="M160.095 38.7493V34.2454H147.689V27.8751H158.871V23.4118H147.689V18.2993H159.483V13.8361H143.363V38.7493H160.095Z" fill="#15C0E4"/>
<path fill-rule="evenodd" clip-rule="evenodd" d="M179.805 38.7493V34.2454H168.623V13.8361H164.257V38.7493H179.805Z" fill="#15C0E4"/>
<path d="M76.0684 58.4283L77.7823 57.4139C79.0066 59.605 80.3941 60.7411 81.9857 60.7411C82.6795 60.7411 83.2916 60.5788 83.9037 60.2542C84.5159 59.9296 84.9648 59.5239 85.2504 58.9964C85.5769 58.4689 85.6993 57.9008 85.6993 57.3328C85.6993 56.643 85.4545 55.9938 85.0056 55.3446C84.3935 54.452 83.21 53.397 81.5368 52.1392C79.8636 50.8813 78.8026 49.9481 78.3945 49.38C77.7007 48.4468 77.3334 47.3919 77.3334 46.2963C77.3334 45.4037 77.5375 44.6327 77.9456 43.9024C78.3537 43.172 78.9658 42.604 79.7412 42.1982C80.5166 41.7925 81.3328 41.5896 82.2306 41.5896C83.1692 41.5896 84.067 41.833 84.8832 42.2794C85.6993 42.7663 86.5971 43.6184 87.4949 44.8762L85.8626 46.134C85.0872 45.1196 84.4751 44.4704 83.9037 44.1458C83.3732 43.8212 82.8019 43.6589 82.1489 43.6589C81.3328 43.6589 80.6798 43.9024 80.1493 44.3893C79.6188 44.8762 79.3739 45.4848 79.3739 46.2152C79.3739 46.6615 79.4555 47.0673 79.6596 47.473C79.8228 47.8788 80.1901 48.3251 80.6798 48.812C80.9247 49.0554 81.8225 49.7452 83.2916 50.8002C85.0464 52.0986 86.2299 53.2347 86.8828 54.2085C87.5358 55.2229 87.8622 56.1967 87.8622 57.2111C87.8622 58.6718 87.2909 59.9296 86.1891 60.9846C85.0872 62.0395 83.7405 62.6076 82.1489 62.6076C80.9247 62.6076 79.8228 62.283 78.8026 61.6338C77.8232 61.0251 76.9254 59.9296 76.0684 58.4283Z" fill="white"/>
<path d="M90.1475 44.0647V42.1171H101.207V44.0647H96.7178V62.1612H94.6365V44.0647H90.1475Z" fill="white"/>
<path d="M112.348 42.1171L121.775 62.1612H119.612L116.429 55.5475H107.736L104.594 62.1612H102.35L111.899 42.1171H112.348ZM112.103 46.3775L108.634 53.6404H115.531L112.103 46.3775Z" fill="white"/>
<path d="M122.877 44.0649V42.1173H133.936V44.0649H129.447V62.1615H127.366V44.0649H122.877Z" fill="white"/>
<path d="M138.548 42.1171H136.548V62.1612H138.548V42.1171Z" fill="white"/>
<path d="M152.79 41.5895C155.85 41.5895 158.421 42.6039 160.462 44.6326C162.502 46.6614 163.563 49.1365 163.563 52.139C163.563 55.0605 162.543 57.5761 160.462 59.6049C158.421 61.6336 155.891 62.6886 152.953 62.6886C149.974 62.6886 147.444 61.6742 145.362 59.6455C143.322 57.6167 142.261 55.1416 142.261 52.2608C142.261 50.3537 142.75 48.5278 143.648 46.9048C144.587 45.2412 145.852 43.9834 147.484 43.0502C149.158 42.0764 150.912 41.5895 152.79 41.5895ZM152.912 43.5371C151.402 43.5371 150.015 43.9428 148.668 44.7138C147.321 45.4847 146.301 46.5397 145.525 47.8381C144.791 49.1365 144.383 50.5972 144.383 52.2202C144.383 54.6141 145.199 56.6023 146.872 58.2659C148.545 59.8889 150.545 60.741 152.871 60.741C154.422 60.741 155.891 60.3758 157.197 59.6049C158.544 58.834 159.564 57.8196 160.298 56.5212C161.033 55.2228 161.4 53.7621 161.4 52.139C161.4 50.5566 161.033 49.0959 160.298 47.8381C159.564 46.5397 158.503 45.5253 157.156 44.7543C155.85 43.9428 154.422 43.5371 152.912 43.5371Z" fill="white"/>
<path d="M167.604 62.1612V42.0764H168.052L181.479 57.4544V42.0764H183.478V62.1612H183.029L169.726 46.986V62.1612H167.604Z" fill="white"/>
<path d="M187.723 62.1205V57.0892H186.254V56.0748H190.212V57.0892H188.743V62.1205H187.723Z" fill="white"/>
<path d="M190.824 62.1205V56.0748H192.334L193.232 60.2135L194.13 56.0748H195.64V62.1205H194.701V57.3732L193.722 62.1205H192.742L191.763 57.3732V62.1205H190.824Z" fill="white"/>
</svg>
